<mxfile host="app.diagrams.net" modified="2020-10-28T16:12:20.607Z" agent="5.0 (Windows NT 10.0; Win64; x64) AppleWebKit/537.36 (KHTML, like Gecko) Chrome/86.0.4240.111 Safari/537.36" etag="m-Bn8_bV0_eyeVj94Ps8" version="13.8.5" type="github">
  <diagram id="C5RBs43oDa-KdzZeNtuy" name="Page-1">
    <mxGraphModel dx="1860" dy="549" grid="1" gridSize="10" guides="1" tooltips="1" connect="1" arrows="1" fold="1" page="1" pageScale="1" pageWidth="827" pageHeight="1169" math="0" shadow="0">
      <root>
        <mxCell id="WIyWlLk6GJQsqaUBKTNV-0" />
        <mxCell id="WIyWlLk6GJQsqaUBKTNV-1" parent="WIyWlLk6GJQsqaUBKTNV-0" />
        <mxCell id="zXRCUJ23-QBEPoKMJWFd-3" value="" style="edgeStyle=orthogonalEdgeStyle;rounded=0;orthogonalLoop=1;jettySize=auto;html=1;" edge="1" parent="WIyWlLk6GJQsqaUBKTNV-1" source="zXRCUJ23-QBEPoKMJWFd-1" target="zXRCUJ23-QBEPoKMJWFd-2">
          <mxGeometry relative="1" as="geometry" />
        </mxCell>
        <mxCell id="zXRCUJ23-QBEPoKMJWFd-1" value="Input" style="ellipse;whiteSpace=wrap;html=1;aspect=fixed;" vertex="1" parent="WIyWlLk6GJQsqaUBKTNV-1">
          <mxGeometry width="80" height="80" as="geometry" />
        </mxCell>
        <mxCell id="zXRCUJ23-QBEPoKMJWFd-5" value="" style="edgeStyle=orthogonalEdgeStyle;rounded=0;orthogonalLoop=1;jettySize=auto;html=1;" edge="1" parent="WIyWlLk6GJQsqaUBKTNV-1" source="zXRCUJ23-QBEPoKMJWFd-2" target="zXRCUJ23-QBEPoKMJWFd-4">
          <mxGeometry relative="1" as="geometry" />
        </mxCell>
        <mxCell id="zXRCUJ23-QBEPoKMJWFd-2" value="&lt;div style=&quot;text-align: justify&quot;&gt;&lt;span&gt;Each student have 3 variable&lt;/span&gt;&lt;/div&gt;&lt;div style=&quot;text-align: justify&quot;&gt;&lt;span&gt;Course : X = 0 -&amp;gt;20&lt;/span&gt;&lt;/div&gt;&lt;div style=&quot;text-align: justify&quot;&gt;&lt;span&gt;Student number: Y = 0 -&amp;gt; 30&lt;/span&gt;&lt;/div&gt;&lt;div style=&quot;text-align: justify&quot;&gt;&lt;span&gt;Mark: Z = 0 - &amp;gt;100&lt;/span&gt;&lt;/div&gt;" style="whiteSpace=wrap;html=1;" vertex="1" parent="WIyWlLk6GJQsqaUBKTNV-1">
          <mxGeometry x="140" y="10" width="170" height="60" as="geometry" />
        </mxCell>
        <mxCell id="zXRCUJ23-QBEPoKMJWFd-38" value="" style="edgeStyle=orthogonalEdgeStyle;rounded=0;orthogonalLoop=1;jettySize=auto;html=1;" edge="1" parent="WIyWlLk6GJQsqaUBKTNV-1" source="zXRCUJ23-QBEPoKMJWFd-4" target="zXRCUJ23-QBEPoKMJWFd-37">
          <mxGeometry relative="1" as="geometry" />
        </mxCell>
        <mxCell id="zXRCUJ23-QBEPoKMJWFd-4" value="For X = X+1" style="whiteSpace=wrap;html=1;" vertex="1" parent="WIyWlLk6GJQsqaUBKTNV-1">
          <mxGeometry x="415" y="10" width="120" height="60" as="geometry" />
        </mxCell>
        <mxCell id="zXRCUJ23-QBEPoKMJWFd-9" value="YES" style="edgeStyle=orthogonalEdgeStyle;rounded=0;orthogonalLoop=1;jettySize=auto;html=1;" edge="1" parent="WIyWlLk6GJQsqaUBKTNV-1" source="zXRCUJ23-QBEPoKMJWFd-6" target="zXRCUJ23-QBEPoKMJWFd-8">
          <mxGeometry relative="1" as="geometry" />
        </mxCell>
        <mxCell id="zXRCUJ23-QBEPoKMJWFd-35" value="NO" style="edgeStyle=orthogonalEdgeStyle;rounded=0;orthogonalLoop=1;jettySize=auto;html=1;" edge="1" parent="WIyWlLk6GJQsqaUBKTNV-1" source="zXRCUJ23-QBEPoKMJWFd-6" target="zXRCUJ23-QBEPoKMJWFd-34">
          <mxGeometry relative="1" as="geometry" />
        </mxCell>
        <mxCell id="zXRCUJ23-QBEPoKMJWFd-6" value="If Y &amp;lt;= 30" style="rhombus;whiteSpace=wrap;html=1;" vertex="1" parent="WIyWlLk6GJQsqaUBKTNV-1">
          <mxGeometry x="705" y="110" width="80" height="80" as="geometry" />
        </mxCell>
        <mxCell id="zXRCUJ23-QBEPoKMJWFd-11" value="NO" style="edgeStyle=orthogonalEdgeStyle;rounded=0;orthogonalLoop=1;jettySize=auto;html=1;" edge="1" parent="WIyWlLk6GJQsqaUBKTNV-1" source="zXRCUJ23-QBEPoKMJWFd-8" target="zXRCUJ23-QBEPoKMJWFd-10">
          <mxGeometry relative="1" as="geometry" />
        </mxCell>
        <mxCell id="zXRCUJ23-QBEPoKMJWFd-27" value="YES" style="edgeStyle=orthogonalEdgeStyle;rounded=0;orthogonalLoop=1;jettySize=auto;html=1;" edge="1" parent="WIyWlLk6GJQsqaUBKTNV-1" source="zXRCUJ23-QBEPoKMJWFd-8">
          <mxGeometry relative="1" as="geometry">
            <mxPoint x="420" y="270" as="targetPoint" />
            <Array as="points">
              <mxPoint x="635" y="230" />
              <mxPoint x="420" y="230" />
            </Array>
          </mxGeometry>
        </mxCell>
        <mxCell id="zXRCUJ23-QBEPoKMJWFd-8" value="100&amp;gt;= Z &amp;gt;90" style="rhombus;whiteSpace=wrap;html=1;" vertex="1" parent="WIyWlLk6GJQsqaUBKTNV-1">
          <mxGeometry x="595" y="110" width="80" height="80" as="geometry" />
        </mxCell>
        <mxCell id="zXRCUJ23-QBEPoKMJWFd-13" value="NO" style="edgeStyle=orthogonalEdgeStyle;rounded=0;orthogonalLoop=1;jettySize=auto;html=1;" edge="1" parent="WIyWlLk6GJQsqaUBKTNV-1" source="zXRCUJ23-QBEPoKMJWFd-10" target="zXRCUJ23-QBEPoKMJWFd-12">
          <mxGeometry relative="1" as="geometry" />
        </mxCell>
        <mxCell id="zXRCUJ23-QBEPoKMJWFd-26" value="YES" style="edgeStyle=orthogonalEdgeStyle;rounded=0;orthogonalLoop=1;jettySize=auto;html=1;" edge="1" parent="WIyWlLk6GJQsqaUBKTNV-1" source="zXRCUJ23-QBEPoKMJWFd-10">
          <mxGeometry relative="1" as="geometry">
            <mxPoint x="420" y="270" as="targetPoint" />
            <Array as="points">
              <mxPoint x="520" y="230" />
              <mxPoint x="420" y="230" />
            </Array>
          </mxGeometry>
        </mxCell>
        <mxCell id="zXRCUJ23-QBEPoKMJWFd-10" value="90&amp;gt;= Z &amp;gt;80" style="rhombus;whiteSpace=wrap;html=1;" vertex="1" parent="WIyWlLk6GJQsqaUBKTNV-1">
          <mxGeometry x="480" y="110" width="80" height="80" as="geometry" />
        </mxCell>
        <mxCell id="zXRCUJ23-QBEPoKMJWFd-15" value="NO" style="edgeStyle=orthogonalEdgeStyle;rounded=0;orthogonalLoop=1;jettySize=auto;html=1;" edge="1" parent="WIyWlLk6GJQsqaUBKTNV-1" source="zXRCUJ23-QBEPoKMJWFd-12" target="zXRCUJ23-QBEPoKMJWFd-14">
          <mxGeometry relative="1" as="geometry" />
        </mxCell>
        <mxCell id="zXRCUJ23-QBEPoKMJWFd-25" value="YES" style="edgeStyle=orthogonalEdgeStyle;rounded=0;orthogonalLoop=1;jettySize=auto;html=1;" edge="1" parent="WIyWlLk6GJQsqaUBKTNV-1" source="zXRCUJ23-QBEPoKMJWFd-12">
          <mxGeometry relative="1" as="geometry">
            <mxPoint x="420" y="270" as="targetPoint" />
          </mxGeometry>
        </mxCell>
        <mxCell id="zXRCUJ23-QBEPoKMJWFd-12" value="80&amp;gt;= Z &amp;gt;70" style="rhombus;whiteSpace=wrap;html=1;" vertex="1" parent="WIyWlLk6GJQsqaUBKTNV-1">
          <mxGeometry x="380" y="110" width="80" height="80" as="geometry" />
        </mxCell>
        <mxCell id="zXRCUJ23-QBEPoKMJWFd-17" value="NO" style="edgeStyle=orthogonalEdgeStyle;rounded=0;orthogonalLoop=1;jettySize=auto;html=1;" edge="1" parent="WIyWlLk6GJQsqaUBKTNV-1" source="zXRCUJ23-QBEPoKMJWFd-14" target="zXRCUJ23-QBEPoKMJWFd-16">
          <mxGeometry relative="1" as="geometry" />
        </mxCell>
        <mxCell id="zXRCUJ23-QBEPoKMJWFd-23" value="YES" style="edgeStyle=orthogonalEdgeStyle;rounded=0;orthogonalLoop=1;jettySize=auto;html=1;entryX=0.5;entryY=0;entryDx=0;entryDy=0;" edge="1" parent="WIyWlLk6GJQsqaUBKTNV-1" source="zXRCUJ23-QBEPoKMJWFd-14" target="zXRCUJ23-QBEPoKMJWFd-20">
          <mxGeometry relative="1" as="geometry" />
        </mxCell>
        <mxCell id="zXRCUJ23-QBEPoKMJWFd-14" value="70&amp;gt;=Z&amp;gt;60" style="rhombus;whiteSpace=wrap;html=1;" vertex="1" parent="WIyWlLk6GJQsqaUBKTNV-1">
          <mxGeometry x="280" y="110" width="80" height="80" as="geometry" />
        </mxCell>
        <mxCell id="zXRCUJ23-QBEPoKMJWFd-19" value="NO" style="edgeStyle=orthogonalEdgeStyle;rounded=0;orthogonalLoop=1;jettySize=auto;html=1;" edge="1" parent="WIyWlLk6GJQsqaUBKTNV-1" source="zXRCUJ23-QBEPoKMJWFd-16" target="zXRCUJ23-QBEPoKMJWFd-18">
          <mxGeometry relative="1" as="geometry" />
        </mxCell>
        <mxCell id="zXRCUJ23-QBEPoKMJWFd-24" value="YES" style="edgeStyle=orthogonalEdgeStyle;rounded=0;orthogonalLoop=1;jettySize=auto;html=1;entryX=0.5;entryY=0;entryDx=0;entryDy=0;" edge="1" parent="WIyWlLk6GJQsqaUBKTNV-1" source="zXRCUJ23-QBEPoKMJWFd-16" target="zXRCUJ23-QBEPoKMJWFd-20">
          <mxGeometry relative="1" as="geometry">
            <Array as="points">
              <mxPoint x="225" y="230" />
              <mxPoint x="420" y="230" />
            </Array>
          </mxGeometry>
        </mxCell>
        <mxCell id="zXRCUJ23-QBEPoKMJWFd-16" value="60&amp;gt;=Z&amp;gt;50" style="rhombus;whiteSpace=wrap;html=1;" vertex="1" parent="WIyWlLk6GJQsqaUBKTNV-1">
          <mxGeometry x="185" y="110" width="80" height="80" as="geometry" />
        </mxCell>
        <mxCell id="zXRCUJ23-QBEPoKMJWFd-21" value="YES" style="edgeStyle=orthogonalEdgeStyle;rounded=0;orthogonalLoop=1;jettySize=auto;html=1;" edge="1" parent="WIyWlLk6GJQsqaUBKTNV-1" source="zXRCUJ23-QBEPoKMJWFd-18" target="zXRCUJ23-QBEPoKMJWFd-20">
          <mxGeometry relative="1" as="geometry">
            <Array as="points">
              <mxPoint x="130" y="230" />
              <mxPoint x="420" y="230" />
            </Array>
          </mxGeometry>
        </mxCell>
        <mxCell id="zXRCUJ23-QBEPoKMJWFd-42" value="NO" style="edgeStyle=orthogonalEdgeStyle;rounded=0;orthogonalLoop=1;jettySize=auto;html=1;entryX=1;entryY=0.5;entryDx=0;entryDy=0;" edge="1" parent="WIyWlLk6GJQsqaUBKTNV-1" source="zXRCUJ23-QBEPoKMJWFd-18" target="zXRCUJ23-QBEPoKMJWFd-29">
          <mxGeometry relative="1" as="geometry" />
        </mxCell>
        <mxCell id="zXRCUJ23-QBEPoKMJWFd-18" value="50&amp;gt;=Z&amp;gt;0" style="rhombus;whiteSpace=wrap;html=1;" vertex="1" parent="WIyWlLk6GJQsqaUBKTNV-1">
          <mxGeometry x="90" y="110" width="80" height="80" as="geometry" />
        </mxCell>
        <mxCell id="zXRCUJ23-QBEPoKMJWFd-40" style="edgeStyle=orthogonalEdgeStyle;rounded=0;orthogonalLoop=1;jettySize=auto;html=1;entryX=1;entryY=0.5;entryDx=0;entryDy=0;" edge="1" parent="WIyWlLk6GJQsqaUBKTNV-1" source="zXRCUJ23-QBEPoKMJWFd-20" target="zXRCUJ23-QBEPoKMJWFd-37">
          <mxGeometry relative="1" as="geometry">
            <Array as="points">
              <mxPoint x="800" y="300" />
              <mxPoint x="800" y="40" />
            </Array>
          </mxGeometry>
        </mxCell>
        <mxCell id="zXRCUJ23-QBEPoKMJWFd-20" value="Classify&lt;br&gt;A, B, C, D ,E,F" style="whiteSpace=wrap;html=1;" vertex="1" parent="WIyWlLk6GJQsqaUBKTNV-1">
          <mxGeometry x="360" y="270" width="120" height="60" as="geometry" />
        </mxCell>
        <mxCell id="zXRCUJ23-QBEPoKMJWFd-41" style="edgeStyle=orthogonalEdgeStyle;rounded=0;orthogonalLoop=1;jettySize=auto;html=1;entryX=0.5;entryY=1;entryDx=0;entryDy=0;" edge="1" parent="WIyWlLk6GJQsqaUBKTNV-1" source="zXRCUJ23-QBEPoKMJWFd-29" target="zXRCUJ23-QBEPoKMJWFd-37">
          <mxGeometry relative="1" as="geometry">
            <Array as="points">
              <mxPoint x="20" y="100" />
              <mxPoint x="675" y="100" />
            </Array>
          </mxGeometry>
        </mxCell>
        <mxCell id="zXRCUJ23-QBEPoKMJWFd-29" value="Err check Input" style="whiteSpace=wrap;html=1;" vertex="1" parent="WIyWlLk6GJQsqaUBKTNV-1">
          <mxGeometry x="-60" y="120" width="120" height="60" as="geometry" />
        </mxCell>
        <mxCell id="zXRCUJ23-QBEPoKMJWFd-46" value="YES" style="edgeStyle=orthogonalEdgeStyle;rounded=0;orthogonalLoop=1;jettySize=auto;html=1;entryX=0;entryY=0.5;entryDx=0;entryDy=0;" edge="1" parent="WIyWlLk6GJQsqaUBKTNV-1" source="zXRCUJ23-QBEPoKMJWFd-34" target="zXRCUJ23-QBEPoKMJWFd-4">
          <mxGeometry relative="1" as="geometry">
            <Array as="points">
              <mxPoint x="-80" y="350" />
              <mxPoint x="-80" y="90" />
              <mxPoint x="370" y="90" />
              <mxPoint x="370" y="40" />
            </Array>
          </mxGeometry>
        </mxCell>
        <mxCell id="zXRCUJ23-QBEPoKMJWFd-48" value="NO" style="edgeStyle=orthogonalEdgeStyle;rounded=0;orthogonalLoop=1;jettySize=auto;html=1;" edge="1" parent="WIyWlLk6GJQsqaUBKTNV-1" source="zXRCUJ23-QBEPoKMJWFd-34" target="zXRCUJ23-QBEPoKMJWFd-47">
          <mxGeometry relative="1" as="geometry" />
        </mxCell>
        <mxCell id="zXRCUJ23-QBEPoKMJWFd-34" value="X &amp;lt; =20" style="rhombus;whiteSpace=wrap;html=1;" vertex="1" parent="WIyWlLk6GJQsqaUBKTNV-1">
          <mxGeometry x="705" y="310" width="80" height="80" as="geometry" />
        </mxCell>
        <mxCell id="zXRCUJ23-QBEPoKMJWFd-45" style="edgeStyle=orthogonalEdgeStyle;rounded=0;orthogonalLoop=1;jettySize=auto;html=1;" edge="1" parent="WIyWlLk6GJQsqaUBKTNV-1" source="zXRCUJ23-QBEPoKMJWFd-37" target="zXRCUJ23-QBEPoKMJWFd-6">
          <mxGeometry relative="1" as="geometry">
            <Array as="points">
              <mxPoint x="675" y="100" />
              <mxPoint x="745" y="100" />
            </Array>
          </mxGeometry>
        </mxCell>
        <mxCell id="zXRCUJ23-QBEPoKMJWFd-37" value="For&amp;nbsp;Y= y+1" style="whiteSpace=wrap;html=1;" vertex="1" parent="WIyWlLk6GJQsqaUBKTNV-1">
          <mxGeometry x="615" y="10" width="120" height="60" as="geometry" />
        </mxCell>
        <mxCell id="zXRCUJ23-QBEPoKMJWFd-47" value="Prinf out&lt;br&gt;Student X,Y,Z,Classify" style="whiteSpace=wrap;html=1;" vertex="1" parent="WIyWlLk6GJQsqaUBKTNV-1">
          <mxGeometry x="685" y="480" width="120" height="60" as="geometry" />
        </mxCell>
      </root>
    </mxGraphModel>
  </diagram>
</mxfile>
